<?xml version="1.0" encoding="UTF-8" standalone="no"?>
<svg xmlns:xlink="http://www.w3.org/1999/xlink" height="508.45px" width="464.7px" xmlns="http://www.w3.org/2000/svg">
  <g transform="matrix(1.0, 0.0, 0.0, 1.0, -33.55, -5.9)">
    <path d="M340.35 186.6 L339.1 185.4 316.4 168.45 315.8 168.1 313.7 166.9 294.3 157.35 292.95 156.8 291.6 143.5 298.25 140.65 Q319.05 153.4 336.15 179.85 L340.35 186.6 M144.1 314.6 Q152.75 316.95 161.95 318.6 155.15 338.65 154.85 361.05 L154.85 361.4 154.85 361.8 154.85 362.25 154.85 362.65 154.85 363.05 154.85 364.85 156.15 382.65 156.3 383.8 Q145.5 352.2 144.1 314.6" fill="#2eba10" fill-rule="evenodd" stroke="none"/>
    <path d="M138.05 312.85 L140.25 313.5 137.4 313.5 137.65 313.25 138.05 312.85 M114.4 313.5 L33.55 313.5 33.55 114.35 52.1 114.35 Q63.4 127.05 84.8 137.7 96.9 143.7 110.4 148.15 106.0 154.4 102.25 164.55 L101.3 167.3 100.3 167.75 99.65 168.1 Q54.9 194.6 54.9 232.05 54.9 269.5 99.65 296.0 L105.05 299.05 113.5 312.55 114.4 313.5" fill="#600cab" fill-rule="evenodd" stroke="none"/>
    <path d="M291.6 143.5 L292.95 156.8 Q283.35 152.85 273.05 150.0 282.65 147.1 291.6 143.5" fill="#450940" fill-rule="evenodd" stroke="none"/>
    <path d="M298.25 140.65 L291.6 143.5 Q282.65 147.1 273.05 150.0 L272.55 149.85 207.75 141.6 196.95 141.8 143.45 151.35 Q135.7 138.1 125.9 138.1 117.35 138.1 110.4 148.15 96.9 143.7 84.8 137.7 63.4 127.05 52.1 114.35 39.35 100.05 39.35 83.1 39.35 51.1 84.8 28.5 130.3 5.9 194.65 5.9 259.0 5.9 304.45 28.5 349.95 51.1 349.95 83.1 349.95 115.1 304.45 137.7 L298.25 140.65" fill="#331b52" fill-rule="evenodd" stroke="none"/>
    <path d="M292.95 156.8 L294.3 157.35 313.7 166.9 315.8 168.1 316.4 168.45 339.1 185.4 340.35 186.6 341.4 187.7 354.75 213.6 Q341.1 211.75 326.55 211.75 255.45 211.75 205.15 256.05 173.7 283.75 161.95 318.6 152.75 316.95 144.1 314.6 L141.8 313.95 140.25 313.5 138.05 312.85 138.8 312.05 148.7 294.45 149.15 293.35 149.2 293.15 149.3 292.95 149.35 292.7 149.45 292.5 149.5 292.25 Q159.3 265.8 159.3 228.4 159.3 191.0 149.5 164.55 L148.8 162.7 148.65 162.3 146.8 157.9 143.45 151.35 196.95 141.8 207.75 141.6 272.55 149.85 273.05 150.0 Q283.35 152.85 292.95 156.8 M105.05 299.05 L99.65 296.0 Q54.9 269.5 54.9 232.05 54.9 194.6 99.65 168.1 L100.3 167.75 101.3 167.3 Q92.5 192.9 92.5 228.4 92.5 265.8 102.25 292.25 L105.05 299.05" fill="#3b82e6" fill-rule="evenodd" stroke="none"/>
    <path d="M161.95 318.6 Q173.7 283.75 205.15 256.05 255.45 211.75 326.55 211.75 341.1 211.75 354.75 213.6 407.95 220.8 447.95 256.05 498.25 300.4 498.25 363.05 498.25 425.7 447.95 470.0 397.65 514.35 326.55 514.35 255.45 514.35 205.15 470.0 L204.8 469.7 204.0 469.0 202.05 467.25 200.45 465.7 199.2 464.55 198.65 464.0 198.1 463.5 197.3 462.65 197.0 462.4 196.75 462.1 196.45 461.85 196.2 461.55 195.9 461.3 195.65 461.0 194.55 459.9 194.1 459.4 192.8 458.0 192.25 457.45 191.85 457.0 189.75 454.7 189.05 453.9 156.45 384.85 156.3 383.8 156.15 382.65 154.85 364.85 154.85 363.05 154.85 362.65 154.85 362.25 154.85 361.8 154.85 361.4 154.85 361.05 Q155.15 338.65 161.95 318.6" fill="#8f3332" fill-rule="evenodd" stroke="none"/>
    <path d="M143.45 151.35 L146.8 157.9 148.65 162.3 148.8 162.7 149.5 164.55 Q159.3 191.0 159.3 228.4 159.3 265.8 149.5 292.25 L149.45 292.5 149.35 292.7 149.3 292.95 149.2 293.15 149.15 293.35 148.7 294.45 138.8 312.05 138.05 312.85 137.65 313.25 137.4 313.5 Q132.05 318.7 125.9 318.7 L125.7 318.7 115.4 314.45 114.4 313.5 113.5 312.55 105.05 299.05 102.25 292.25 Q92.5 265.8 92.5 228.4 92.5 192.9 101.3 167.3 L102.25 164.55 Q106.0 154.4 110.4 148.15 117.35 138.1 125.9 138.1 135.7 138.1 143.45 151.35" fill="#7aa816" fill-rule="evenodd" stroke="none"/>
  </g>
</svg>
